# xmcd
#
# Track frame offsets:
# 150
# 11992
# 29819
# 50858
# 64301
# 78477
# 93203
# 112322
# 125521
# 144300
# 159705
# 176015
# 189128
#
# Disc length: 2801 seconds
#
#
# Revision: 11
# Processed by: cddbd v1.5.1PL2 Copyright (c) Steve Scherf et al.
# Submitted via: FreeRIP 2.944 
#
DISCID=be0aef0d
DTITLE=Adriana Calcanhotto - Perfil
DYEAR=2001
DGENRE=MPB
TTITLE0=Devolva-me
TTITLE1=Mais Feliz
TTITLE2=Inverno
TTITLE3=Mentiras
TTITLE4=Esquadros
TTITLE5=Cariocas
TTITLE6=Vambora
TTITLE7=Por Isso Eu Corro Demais
TTITLE8=Maresia
TTITLE9=Metade
TTITLE10=Senhas
TTITLE11=Marina
TTITLE12=Naquela Estação
EXTD=YEAR: 2001
EXTT0=
EXTT1=
EXTT2=
EXTT3=
EXTT4=
EXTT5=
EXTT6=
EXTT7=
EXTT8=
EXTT9=
EXTT10=
EXTT11=
EXTT12=
PLAYORDER=
